/* XPM */
static const char * expander_open_xpm[] = {
"20 20 128 2",
"  	c None",
". 	c #A09FA0",
"+ 	c #A3A2A3",
"@ 	c #ABAAAB",
"# 	c #ADACAD",
"$ 	c #9F9C9F",
"% 	c #A5A2A5",
"& 	c #BFBEBF",
"* 	c #DCDADC",
"= 	c #E7E7E7",
"- 	c #EBEBEB",
"; 	c #ECEBEC",
"> 	c #DAD9DA",
", 	c #BCBCBC",
"' 	c #A29FA2",
") 	c #AFACAF",
"! 	c #E0DEE0",
"~ 	c #F8F4F8",
"{ 	c #F7F3F7",
"] 	c #F9F5F9",
"^ 	c #E1DFE1",
"/ 	c #B1AFB1",
"( 	c #B8B5B8",
"_ 	c #E6E4E6",
": 	c #EFEDEF",
"< 	c #EDEBED",
"[ 	c #EEECEE",
"} 	c #E3E1E3",
"| 	c #B7B5B7",
"1 	c #ADABAD",
"2 	c #E8E6E8",
"3 	c #E8E5E8",
"4 	c #E5E2E5",
"5 	c #B0ADB0",
"6 	c #A6A3A6",
"7 	c #D2CFD2",
"8 	c #DFDFDF",
"9 	c #DEDDDE",
"0 	c #DEDEDE",
"a 	c #CECDCE",
"b 	c #A3A1A3",
"c 	c #D9D9D9",
"d 	c #D8D8D8",
"e 	c #B2B0B2",
"f 	c #9F9E9F",
"g 	c #C4C2C4",
"h 	c #D1D0D1",
"i 	c #D2D1D2",
"j 	c #D2D0D2",
"k 	c #D3D1D3",
"l 	c #BEBCBE",
"m 	c #A2A1A2",
"n 	c #C3C2C3",
"o 	c #C9C9C9",
"p 	c #CCCCCC",
"q 	c #A7A6A7",
"r 	c #9D9C9D",
"s 	c #CCCDCC",
"t 	c #B0AFB0",
"u 	c #CBCCCB",
"v 	c #C9CAC9",
"w 	c #C3C3C3",
"x 	c #A4A2A4",
"y 	c #A9A7A9",
"z 	c #C1BFC1",
"A 	c #C6C3C6",
"B 	c #666866",
"C 	c #656665",
"D 	c #C8C5C8",
"E 	c #5F615F",
"F 	c #606260",
"G 	c #B2B1B2",
"H 	c #C7C4C7",
"I 	c #A7A5A7",
"J 	c #AAA8AA",
"K 	c #BAB9BA",
"L 	c #BDBCBD",
"M 	c #868586",
"N 	c #626462",
"O 	c #9A9A9A",
"P 	c #9B9C9B",
"Q 	c #616361",
"R 	c #878687",
"S 	c #BDBDBD",
"T 	c #BCBBBC",
"U 	c #A8A5A8",
"V 	c #A2A0A2",
"W 	c #B4B4B4",
"X 	c #B6B7B6",
"Y 	c #B7B7B7",
"Z 	c #868986",
"` 	c #646664",
" .	c #656765",
"..	c #7F807F",
"+.	c #B5B6B5",
"@.	c #9E9E9E",
"#.	c #AFADAF",
"$.	c #B0AEB0",
"%.	c #7D7D7D",
"&.	c #B3B2B3",
"*.	c #ADAAAD",
"=.	c #AAA9AA",
"-.	c #808280",
";.	c #7C7D7C",
">.	c #AEABAE",
",.	c #A9A6A9",
"'.	c #A5A5A5",
").	c #A4A3A4",
"!.	c #A6A5A6",
"~.	c #A5A3A5",
"{.	c #ABA9AB",
"].	c #9F9F9F",
"^.	c #9E9D9E",
"/.	c #9E9F9E",
"(.	c #ABA8AB",
"_.	c #999999",
":.	c #989898",
"<.	c #A8A6A8",
"[.	c #9B9B9B",
"}.	c #929292",
"|.	c #919191",
"1.	c #919291",
"2.	c #9C9B9C",
"3.	c #909190",
"4.	c #8C8D8C",
"5.	c #A7A4A7",
"6.	c #ACA9AC",
"7.	c #ADA9AD",
"              . + @ # + $               ",
"          % & * = - ; = > , '           ",
"        ) ! ~ { { { { { { ] ^ /         ",
"      ( _ : < < < < < < < < [ } |       ",
"    1 ^ 2 3 3 3 3 3 3 3 3 3 3 2 4 5     ",
"  6 7 8 9 0 0 0 0 0 0 0 0 0 0 9 0 a b   ",
"  | c d d d d d d d d d d d d d d d e   ",
"f g h h h h i h h h h h j h h h h k l m ",
"b n o o o p q r p o o s q t u o o v w x ",
"y z A A A t B C x A D x E F G H A A n I ",
"J K L L L K M E N O P Q N R S L L L T U ",
"V W X X X X Y Z F `  .N ..+.X X X X W % ",
"@.#.t t t t $.t ..Q N %.&.t t t t t ) x ",
"  *.=.=.=.=.=.=.=.-.;.J =.=.=.=.=.=.>.  ",
"  ,.'.).).).).).).!.!.).).).).).).q ~.  ",
"    {.].@.@.@.@.@.@.@.@.@.@.@.^./.,.    ",
"      (._.:.:.:.:.:.:.:.:.:.:._.(.      ",
"        <.[.}.|.}.}.}.}.|.1.2.I         ",
"          x y [.3.4.4.3.2.y 5.          ",
"              <.,.6.7.U I               "};
