/* XPM */
static const char * expander_close_xpm[] = {
"20 20 128 2",
"  	c None",
". 	c #A7A5A7",
"+ 	c #A8A5A8",
"@ 	c #ADA9AD",
"# 	c #ACA9AC",
"$ 	c #A9A6A9",
"% 	c #A8A6A8",
"& 	c #A7A4A7",
"* 	c #A9A7A9",
"= 	c #9C9B9C",
"- 	c #909190",
"; 	c #8C8D8C",
"> 	c #9B9B9B",
", 	c #A4A2A4",
"' 	c #919291",
") 	c #919191",
"! 	c #929292",
"~ 	c #ABA8AB",
"{ 	c #999999",
"] 	c #989898",
"^ 	c #9E9F9E",
"/ 	c #9E9D9E",
"( 	c #9E9E9E",
"_ 	c #9F9F9F",
": 	c #ABA9AB",
"< 	c #A5A3A5",
"[ 	c #A7A6A7",
"} 	c #A4A3A4",
"| 	c #A6A5A6",
"1 	c #A5A5A5",
"2 	c #AEABAE",
"3 	c #AAA9AA",
"4 	c #AAA8AA",
"5 	c #7C7D7C",
"6 	c #808280",
"7 	c #ADAAAD",
"8 	c #AFACAF",
"9 	c #B0AFB0",
"0 	c #B3B2B3",
"a 	c #7D7D7D",
"b 	c #626462",
"c 	c #616361",
"d 	c #7F807F",
"e 	c #B0AEB0",
"f 	c #AFADAF",
"g 	c #A5A2A5",
"h 	c #B4B4B4",
"i 	c #B6B7B6",
"j 	c #B5B6B5",
"k 	c #656765",
"l 	c #646664",
"m 	c #606260",
"n 	c #868986",
"o 	c #B7B7B7",
"p 	c #A2A0A2",
"q 	c #BCBBBC",
"r 	c #BDBCBD",
"s 	c #BDBDBD",
"t 	c #878687",
"u 	c #9B9C9B",
"v 	c #9A9A9A",
"w 	c #5F615F",
"x 	c #868586",
"y 	c #BAB9BA",
"z 	c #C3C2C3",
"A 	c #C6C3C6",
"B 	c #C7C4C7",
"C 	c #B2B1B2",
"D 	c #C8C5C8",
"E 	c #656665",
"F 	c #666866",
"G 	c #C1BFC1",
"H 	c #C3C3C3",
"I 	c #C9CAC9",
"J 	c #C9C9C9",
"K 	c #CBCCCB",
"L 	c #CCCDCC",
"M 	c #CCCCCC",
"N 	c #9D9C9D",
"O 	c #A3A1A3",
"P 	c #A2A1A2",
"Q 	c #BEBCBE",
"R 	c #D3D1D3",
"S 	c #D1D0D1",
"T 	c #D2D0D2",
"U 	c #D2D1D2",
"V 	c #C4C2C4",
"W 	c #9F9E9F",
"X 	c #B2B0B2",
"Y 	c #D8D8D8",
"Z 	c #D9D9D9",
"` 	c #B7B5B7",
" .	c #CECDCE",
"..	c #DEDEDE",
"+.	c #DEDDDE",
"@.	c #DFDFDF",
"#.	c #D2CFD2",
"$.	c #A6A3A6",
"%.	c #B0ADB0",
"&.	c #E5E2E5",
"*.	c #E8E6E8",
"=.	c #E8E5E8",
"-.	c #E1DFE1",
";.	c #ADABAD",
">.	c #E3E1E3",
",.	c #EEECEE",
"'.	c #EDEBED",
").	c #EFEDEF",
"!.	c #E6E4E6",
"~.	c #B8B5B8",
"{.	c #B1AFB1",
"].	c #F9F5F9",
"^.	c #F7F3F7",
"/.	c #F8F4F8",
"(.	c #E0DEE0",
"_.	c #A29FA2",
":.	c #BCBCBC",
"<.	c #DAD9DA",
"[.	c #E7E7E7",
"}.	c #ECEBEC",
"|.	c #EBEBEB",
"1.	c #DCDADC",
"2.	c #BFBEBF",
"3.	c #9F9C9F",
"4.	c #A3A2A3",
"5.	c #ADACAD",
"6.	c #ABAAAB",
"7.	c #A09FA0",
"              . + @ # $ %               ",
"          & * = - ; ; - > * ,           ",
"        . = ' ) ! ! ! ! ) ! > %         ",
"      ~ { ] ] ] ] ] ] ] ] ] ] { ~       ",
"    $ ^ / ( ( ( ( ( ( ( ( ( ( ( _ :     ",
"  < [ } } } } } } | | } } } } } } 1 $   ",
"  2 3 3 3 3 3 3 4 5 6 3 3 3 3 3 3 3 7   ",
", 8 9 9 9 9 9 0 a b c d 9 e 9 9 9 9 f ( ",
"g h i i i i j d b k l m n o i i i i h p ",
"+ q r r r s t b c u v b w x y r r r y 4 ",
". z A A B C m w , D A , E F 9 A A A G * ",
", H I J J K 9 [ L J J M N [ M J J J z O ",
"P Q R S S S S T S S S S S U S S S S V W ",
"  X Y Y Y Y Y Y Y Y Y Y Y Y Y Y Y Z `   ",
"  O  ...+.....................+.@.#.$.  ",
"    %.&.*.=.=.=.=.=.=.=.=.=.=.*.-.;.    ",
"      ` >.,.'.'.'.'.'.'.'.'.).!.~.      ",
"        {.-.].^.^.^.^.^.^./.(.8         ",
"          _.:.<.[.}.|.[.1.2.g           ",
"              3.4.5.6.4.7.              "};
