/* XPM */
static const char *failed48_xpm[] = {
"48 48 262 2",
"  	c None",
". 	c #FB0707",
"+ 	c #F90807",
"@ 	c #F80808",
"# 	c #F70909",
"$ 	c #F50A09",
"% 	c #F40909",
"& 	c #F20A0A",
"* 	c #F00A0B",
"= 	c #EF0B0B",
"- 	c #EE0B0C",
"; 	c #FD0607",
"> 	c #FC0707",
", 	c #FB0708",
"' 	c #FA0808",
") 	c #F70808",
"! 	c #F60809",
"~ 	c #F50909",
"{ 	c #F40A09",
"] 	c #F10A0A",
"^ 	c #EC0C0C",
"/ 	c #EB0C0D",
"( 	c #E90D0D",
"_ 	c #E80E0D",
": 	c #FE0606",
"< 	c #FE0707",
"[ 	c #FA0708",
"} 	c #F60908",
"| 	c #F30A0A",
"1 	c #F00B0A",
"2 	c #ED0C0B",
"3 	c #EA0C0C",
"4 	c #E80D0D",
"5 	c #E60E0E",
"6 	c #E50E0E",
"7 	c #E40F0E",
"8 	c #FF0606",
"9 	c #FD0707",
"0 	c #FA0807",
"a 	c #F90808",
"b 	c #F30A09",
"c 	c #F00A0A",
"d 	c #ED0B0B",
"e 	c #E70D0D",
"f 	c #E60E0D",
"g 	c #E50F0E",
"h 	c #E30F0F",
"i 	c #E10F0F",
"j 	c #E0100F",
"k 	c #DF1010",
"l 	c #FE0706",
"m 	c #FD0706",
"n 	c #F70908",
"o 	c #F60909",
"p 	c #F3090A",
"q 	c #F20A0B",
"r 	c #F00B0B",
"s 	c #EA0C0D",
"t 	c #E70E0E",
"u 	c #E60D0E",
"v 	c #E20F10",
"w 	c #E01010",
"x 	c #DE1111",
"y 	c #DB1111",
"z 	c #FB0807",
"A 	c #F60808",
"B 	c #F40A0A",
"C 	c #F10B0A",
"D 	c #EF0B0C",
"E 	c #ED0B0C",
"F 	c #EC0D0C",
"G 	c #EA0D0D",
"H 	c #E40E0E",
"I 	c #E11010",
"J 	c #E00F0F",
"K 	c #DE1011",
"L 	c #DC1111",
"M 	c #DA1111",
"N 	c #D91212",
"O 	c #D71312",
"P 	c #EE0B0B",
"Q 	c #E90E0D",
"R 	c #E40E0F",
"S 	c #DF1011",
"T 	c #DD1110",
"U 	c #D71212",
"V 	c #D61313",
"W 	c #D41314",
"X 	c #FE0607",
"Y 	c #FB0808",
"Z 	c #F70809",
"` 	c #F4090A",
" .	c #EC0C0B",
"..	c #E30E0F",
"+.	c #E1100F",
"@.	c #DE1110",
"#.	c #DD1011",
"$.	c #DA1211",
"%.	c #D81212",
"&.	c #D51313",
"*.	c #D41313",
"=.	c #D31414",
"-.	c #D11514",
";.	c #F80908",
">.	c #F62727",
",.	c #F75959",
"'.	c #F6595A",
").	c #F33D3D",
"!.	c #EF0A0B",
"~.	c #EE0C0B",
"{.	c #E70D0E",
"].	c #E00F10",
"^.	c #E22D2D",
"/.	c #E54C4C",
"(.	c #E44D4D",
"_.	c #DE2F2F",
":.	c #D81312",
"<.	c #D71313",
"[.	c #D41414",
"}.	c #D21414",
"|.	c #D11415",
"1.	c #D01515",
"2.	c #F80809",
"3.	c #F72727",
"4.	c #F87575",
"5.	c #FBB5B4",
"6.	c #FDE6E6",
"7.	c #FDE8E8",
"8.	c #FCDDDD",
"9.	c #F79090",
"0.	c #F03F3F",
"a.	c #E2100F",
"b.	c #E10F10",
"c.	c #E32D2D",
"d.	c #EC7878",
"e.	c #F8D2D2",
"f.	c #FAE1E1",
"g.	c #F9DBDB",
"h.	c #F0A5A5",
"i.	c #E66B6B",
"j.	c #DA3130",
"k.	c #D11515",
"l.	c #CE1516",
"m.	c #CD1616",
"n.	c #FA0707",
"o.	c #FFFFFF",
"p.	c #FEF2F2",
"q.	c #FCDBDB",
"r.	c #EF5353",
"s.	c #E20F0F",
"t.	c #E54242",
"u.	c #F9D3D3",
"v.	c #FBEDED",
"w.	c #D73131",
"x.	c #CF1515",
"y.	c #CD1515",
"z.	c #CD1615",
"A.	c #F86565",
"B.	c #FDECEC",
"C.	c #EA3B3B",
"D.	c #E53C3C",
"E.	c #FBE9E9",
"F.	c #E16D6C",
"G.	c #CD1516",
"H.	c #F62728",
"I.	c #FAABAB",
"J.	c #FCE8E8",
"K.	c #E83C3C",
"L.	c #E53D3C",
"M.	c #FBE6E6",
"N.	c #ECA7A6",
"O.	c #D33232",
"P.	c #F54747",
"Q.	c #FDE0E0",
"R.	c #FCEAEA",
"S.	c #E43C3C",
"T.	c #FBE5E5",
"U.	c #F7DCDC",
"V.	c #D94F50",
"W.	c #F44847",
"X.	c #FDF4F4",
"Y.	c #FCEEEE",
"Z.	c #F12929",
"`.	c #FBC8C8",
" +	c #F3CACA",
".+	c #F36767",
"++	c #FEFDFD",
"@+	c #FEFBFB",
"#+	c #DF6D6D",
"$+	c #EC2A2B",
"%+	c #F8B6B6",
"&+	c #F0B9B9",
"*+	c #D33333",
"=+	c #EA0D0C",
"-+	c #EA2C2B",
";+	c #F9C9C9",
">+	c #D33332",
",+	c #EB0C0C",
"'+	c #F6B3B3",
")+	c #EFB5B5",
"!+	c #ED0C0C",
"~+	c #E30F0E",
"{+	c #F3A9A9",
"]+	c #EDABAB",
"^+	c #F10A0B",
"/+	c #E70E0D",
"(+	c #E40F0F",
"_+	c #DF1110",
":+	c #F5B9B9",
"<+	c #F5D0D0",
"[+	c #E23D3D",
"}+	c #E27B7C",
"|+	c #EC0B0C",
"1+	c #E33D3D",
"2+	c #E90C0D",
"3+	c #E50F0F",
"4+	c #E23D3C",
"5+	c #E80E0E",
"6+	c #DE1010",
"7+	c #FDF9F9",
"8+	c #E27C7B",
"9+	c #E80D0E",
"0+	c #DD1111",
"a+	c #FAE3E3",
"b+	c #FCF4F4",
"c+	c #D95050",
"d+	c #DF2828",
"e+	c #F4B9B9",
"f+	c #F5D3D2",
"g+	c #DD1010",
"h+	c #E45353",
"i+	c #FEFEFE",
"j+	c #D94F4F",
"k+	c #DB1211",
"l+	c #DC2929",
"m+	c #F0A9A9",
"n+	c #E68A8A",
"o+	c #DF100F",
"p+	c #E27C7C",
"q+	c #DA1212",
"r+	c #DA2A29",
"s+	c #EEA0A0",
"t+	c #D61312",
"u+	c #DC4242",
"v+	c #F2C4C4",
"w+	c #D81213",
"x+	c #D51413",
"y+	c #D62B2B",
"z+	c #ECA1A1",
"A+	c #FAE9E9",
"B+	c #D9504F",
"C+	c #D32B2B",
"D+	c #EBA1A1",
"E+	c #FCF1F1",
"F+	c #E17474",
"G+	c #ECA7A8",
"H+	c #F5D4D3",
"I+	c #F2C5C5",
"J+	c #D11414",
"K+	c #CF1615",
"L+	c #D12C2C",
"M+	c #D21415",
"                                                                                                ",
"                                                                                                ",
"                                      . + @ # $ % & * = -                                       ",
"                                ; > , ' ) ! ~ { ] * = - ^ / ( _                                 ",
"                            : < . [ + # } ~ | & 1 = 2 ^ 3 ( 4 5 6 7                             ",
"                        8 : 9 > 0 a # ~ $ b & c = d ^ / ( e f g h i j k                         ",
"                      8 l m > ' a n o % p q r = 2 ^ s ( t u 6 h v w k x y                       ",
"                  8 8 < 9 z [ @ A o B b C = D E F G 4 t f H h I J k K L M N O                   ",
"                8 8 : > . ' @ o ~ { & C 1 P 2 / G Q t 5 R h I w S T y M N U V W                 ",
"              8 8 X > Y a @ Z o ` & ] r P  ./ s 4 t 6 ..h +.w @.#.y $.%.U &.*.=.-.              ",
"              8 9 > . a ;.# >.,.'.).!.~.^ / G _ {.6 R h ].k ^./.(._.:.<.&.[.}.|.1.              ",
"            : l > . a 2.3.4.5.6.7.8.9.0./ G _ t 6 R a.b.c.d.e.f.g.h.i.j.W }.k.1.l.m.            ",
"          8 m > n.a Z 3.o.p.o.o.o.o.o.q.r.4 u 6 7 s.w t.u.o.o.o.o.o.v.o.w.|.x.y.z.m.y.          ",
"          9 > 0 a n o A.p.o.o.o.o.o.o.o.B.C.g ..v j D.E.o.o.o.o.o.o.o.v.F.x.G.m.z.m.m.          ",
"        m > 0 @ Z o H.I.o.o.o.o.o.o.o.o.o.J.K.a.].L.M.o.o.o.o.o.o.o.o.o.N.O.m.G.m.m.m.z.        ",
"        . ' 2.! o % P.Q.o.o.o.o.o.o.o.o.o.o.R.D.S.T.o.o.o.o.o.o.o.o.o.o.U.V.z.m.m.m.m.y.        ",
"      . ' @ Z ~ b & W.Q.o.o.o.o.o.o.o.o.o.o.o.X.Y.o.o.o.o.o.o.o.o.o.o.o.U.V.G.z.m.m.m.z.m.      ",
"      + @ n ~ ` & ] Z.`.o.o.o.o.o.o.o.o.o.o.o.o.o.o.o.o.o.o.o.o.o.o.o.o. +O.m.m.z.z.m.m.m.      ",
"      @ o ~ B & c = - .+++o.o.o.o.o.o.o.o.o.o.o.o.o.o.o.o.o.o.o.o.o.o.@+#+m.z.z.m.G.z.m.m.      ",
"    @ o % | & C = 2 ^ $+%+o.o.o.o.o.o.o.o.o.o.o.o.o.o.o.o.o.o.o.o.o.o.&+*+m.m.G.m.y.m.m.z.G.    ",
"    o { | & 1 P ~.^ =+( -+;+o.o.o.o.o.o.o.o.o.o.o.o.o.o.o.o.o.o.o.o. +>+y.G.G.m.z.m.z.m.m.z.    ",
"    ` | C r P d ,+/ 4 e 5 H '+o.o.o.o.o.o.o.o.o.o.o.o.o.o.o.o.o.o.)+m.z.z.G.G.G.z.m.G.y.m.z.    ",
"    | ] !.~.!+^ G 4 4 5 H ~++.{+o.o.o.o.o.o.o.o.o.o.o.o.o.o.o.o.]+m.z.m.m.z.G.m.m.m.G.m.m.G.    ",
"    ^+c - !+,+=+( /+6 (+h i w _+:+o.o.o.o.o.o.o.o.o.o.o.o.o.o.<+m.m.G.m.m.G.m.m.m.z.y.z.z.z.    ",
"    = ~.2 ^ ( 4 t 5 H s.i w S [+T.o.o.o.o.o.o.o.o.o.o.o.o.o.o.@+}+z.m.z.G.m.G.z.G.G.y.m.m.m.    ",
"    - |+,+s 4 e 6 (+s.b.w @.1+T.o.o.o.o.o.o.o.o.o.o.o.o.o.o.o.o.@+}+m.m.m.z.G.m.m.m.z.z.z.m.    ",
"    ^ ,+2+4 f 3+~+s.+.k @.4+T.o.o.o.o.o.o.o.o.o.o.o.o.o.o.o.o.o.o.@+}+G.m.m.m.m.G.m.z.m.m.y.    ",
"    / =+5+5 H h s.b.k 6+[+T.o.o.o.o.o.o.o.o.o.o.o.o.o.o.o.o.o.o.o.o.7+8+z.m.m.z.m.m.z.G.m.y.    ",
"    ( 9+u 3+h i I k 0+[+a+o.o.o.o.o.o.o.o.o.o.o.o.o.o.o.o.o.o.o.o.o.o.b+c+m.m.z.z.m.G.G.m.m.    ",
"      5 3+h s.w k T d+e+o.o.o.o.o.o.o.o.o.o.o.o.o.o.o.o.o.o.o.o.o.o.o.o.f+y.m.G.m.G.m.m.G.      ",
"      H ..b.w @.g+L h+o.o.o.o.o.o.o.o.o.o.o.o.o.i+o.o.o.o.o.o.o.o.o.o.o.o.j+m.m.m.y.m.G.m.      ",
"      s.+.w 6+#.k+l+m+o.o.o.o.o.o.o.o.o.o.o.o.]+}+@+o.o.o.o.o.o.o.o.o.o.o.n+z.G.m.y.G.m.m.      ",
"        o+@.g+y $.l+m+o.o.o.o.o.o.o.o.o.o.o.]+y.G.p+@+o.o.o.o.o.o.o.o.o.o.n+m.y.y.z.G.m.        ",
"        6+0+y q+:.r+s+o.o.o.o.o.o.o.o.o.o.]+G.y.z.y.}+@+o.o.o.o.o.o.o.o.o.c+G.m.y.G.m.m.        ",
"          y q+%.t+&.u+o.o.o.o.o.o.o.o.o.]+m.m.G.G.z.m.8+7+o.o.o.o.o.o.o.v+m.m.m.m.z.m.          ",
"          N w+O x+=.y+z+o.o.o.o.o.o.i+]+y.m.G.m.y.m.z.m.8+A+o.o.o.o.o.o.B+m.G.m.m.G.y.          ",
"            V &.W }.|.C+D+o.o.o.o.E+F+m.m.G.G.m.y.G.G.z.m.V.G+H+H+I+n+c+z.z.y.G.m.z.            ",
"              =.J+1.K+G.m.L+n+n+F+m.z.m.z.m.m.m.z.m.m.m.z.m.G.B+c+j+G.G.G.G.m.m.G.              ",
"              M+1.x.m.G.m.m.m.G.m.z.z.m.m.G.m.z.m.z.z.m.y.m.m.m.G.m.m.m.G.m.G.m.G.              ",
"                x.z.y.m.m.z.m.G.m.G.m.m.m.m.m.m.y.m.m.m.G.m.y.m.G.m.m.y.m.G.m.m.                ",
"                  m.m.m.G.m.m.G.z.m.G.m.m.m.m.z.G.m.m.m.m.G.m.m.G.y.m.m.m.m.G.                  ",
"                      m.G.m.m.m.y.m.m.m.m.z.m.y.z.G.G.y.m.m.G.m.y.m.z.z.z.                      ",
"                        m.z.z.z.y.G.z.m.m.z.m.m.z.m.m.y.m.m.y.G.G.z.G.m.                        ",
"                            z.z.z.z.z.m.m.G.z.z.G.m.m.z.z.m.G.z.G.G.                            ",
"                                m.m.m.y.m.G.G.m.m.z.z.z.m.m.z.m.                                ",
"                                      z.m.G.m.m.z.m.m.m.m.                                      ",
"                                                                                                ",
"                                                                                                "};
