/* XPM */
static char * folder_36x36_xpm[] = {
"36 36 322 2",
"  	c None",
". 	c #67707C",
"+ 	c #666F7B",
"@ 	c #6E7682",
"# 	c #6F7783",
"$ 	c #68717D",
"% 	c #F3F3F4",
"& 	c #FFFFFF",
"* 	c #FDFDFD",
"= 	c #A0A5AD",
"- 	c #A9AEB4",
"; 	c #FEFEFE",
"> 	c #555F6C",
", 	c #5E6975",
"' 	c #5E6875",
") 	c #636D79",
"! 	c #B2B7BD",
"~ 	c #BCC0C5",
"{ 	c #656E7A",
"] 	c #B2B6BC",
"^ 	c #FCFCFC",
"/ 	c #9EA3AB",
"( 	c #67707B",
"_ 	c #A2ABB4",
": 	c #DFE8EC",
"< 	c #E0E9ED",
"[ 	c #E2EAEE",
"} 	c #E3ECEF",
"| 	c #E5EDF0",
"1 	c #E7EFF1",
"2 	c #EAEFF2",
"3 	c #EAF0F3",
"4 	c #ECF2F4",
"5 	c #EEF3F5",
"6 	c #EFF3F5",
"7 	c #EEF4F5",
"8 	c #F0F4F6",
"9 	c #EBF1F3",
"0 	c #E8EFF2",
"a 	c #E6EDF0",
"b 	c #E4ECEF",
"c 	c #E0EAED",
"d 	c #DEE8EC",
"e 	c #A2ACB4",
"f 	c #A0AAB3",
"g 	c #DBE4E9",
"h 	c #DCE6EA",
"i 	c #DEE7EB",
"j 	c #E0E9EC",
"k 	c #E3ECEE",
"l 	c #E7EEF1",
"m 	c #E9EFF2",
"n 	c #EBF1F2",
"o 	c #EBF1F4",
"p 	c #EBF2F3",
"q 	c #EAF0F2",
"r 	c #E5ECEE",
"s 	c #E2EBEE",
"t 	c #DBE6EA",
"u 	c #A0ABB2",
"v 	c #9FA9B1",
"w 	c #D8E2E8",
"x 	c #D8E3E7",
"y 	c #DDE6EA",
"z 	c #DFE7EB",
"A 	c #E1E9ED",
"B 	c #E3EAED",
"C 	c #E4EBEE",
"D 	c #E5ECF0",
"E 	c #E7EEF0",
"F 	c #E8EEF1",
"G 	c #E9EEF2",
"H 	c #E9EFF1",
"I 	c #E5EBEF",
"J 	c #E3EAEE",
"K 	c #DFE8EB",
"L 	c #DBE5E9",
"M 	c #D9E4E8",
"N 	c #D8E3E8",
"O 	c #9EA8B0",
"P 	c #D5E0E5",
"Q 	c #D5DFE5",
"R 	c #D7E1E5",
"S 	c #DAE3E7",
"T 	c #DCE5E9",
"U 	c #E0E8EB",
"V 	c #E2E9ED",
"W 	c #E5EBEE",
"X 	c #E5ECEF",
"Y 	c #E4EAEE",
"Z 	c #E1E8EC",
"` 	c #DEE6EA",
" .	c #D8E1E6",
"..	c #D6DFE5",
"+.	c #D6E0E5",
"@.	c #9CA6AE",
"#.	c #D2DDE2",
"$.	c #D1DCE1",
"%.	c #D3DEE2",
"&.	c #D6DFE4",
"*.	c #D7E1E4",
"=.	c #D9E2E6",
"-.	c #DBE4E7",
";.	c #DDE5E8",
">.	c #DEE6E9",
",.	c #DFE7EA",
"'.	c #E0E8EA",
").	c #E1E7EB",
"!.	c #E1E8EB",
"~.	c #9AA4AD",
"{.	c #CED9DF",
"].	c #CCD7DD",
"^.	c #CED9DD",
"/.	c #D0DADF",
"(.	c #D2DDE1",
"_.	c #D5DEE2",
":.	c #D6DFE2",
"<.	c #D7E0E4",
"[.	c #D9E1E5",
"}.	c #DBE2E6",
"|.	c #DBE3E6",
"1.	c #DCE3E6",
"2.	c #DCE4E6",
"3.	c #D8E0E4",
"4.	c #D6DFE3",
"5.	c #D3DDE1",
"6.	c #CED9DE",
"7.	c #CDD7DD",
"8.	c #98A2AB",
"9.	c #CAD4DA",
"0.	c #C7D2D8",
"a.	c #C9D4DA",
"b.	c #CBD6DB",
"c.	c #CED6DC",
"d.	c #CFD8DD",
"e.	c #D2DBE0",
"f.	c #D4DCE1",
"g.	c #D5DDE1",
"h.	c #D6DDE2",
"i.	c #D6DEE3",
"j.	c #D7DEE3",
"k.	c #D5DDE2",
"l.	c #D1DADF",
"m.	c #CFD8DE",
"n.	c #CED7DC",
"o.	c #CCD6DB",
"p.	c #CAD5DA",
"q.	c #98A3AB",
"r.	c #96A0A9",
"s.	c #C5D0D6",
"t.	c #C2CDD3",
"u.	c #C4CFD5",
"v.	c #C5D1D6",
"w.	c #C7D2D7",
"x.	c #C9D3D8",
"y.	c #CBD5DA",
"z.	c #CDD6DB",
"A.	c #CFD8DC",
"B.	c #D0D9DD",
"C.	c #D1D9DE",
"D.	c #C9D3D9",
"E.	c #C8D2D7",
"F.	c #C5D0D7",
"G.	c #C6D0D6",
"H.	c #949EA7",
"I.	c #C1CBD1",
"J.	c #BCC7CE",
"K.	c #BDC8CF",
"L.	c #BFCAD0",
"M.	c #C2CCD2",
"N.	c #C3CDD3",
"O.	c #C4CED4",
"P.	c #C6CFD5",
"Q.	c #C7D0D6",
"R.	c #C9D1D7",
"S.	c #C9D3D7",
"T.	c #CAD2D8",
"U.	c #CAD3D8",
"V.	c #CAD3D9",
"W.	c #C7D1D6",
"X.	c #C5CED4",
"Y.	c #C3CED4",
"Z.	c #C0CAD0",
"`.	c #929CA5",
" +	c #BBC6CD",
".+	c #B5C0C8",
"++	c #B7C3C9",
"@+	c #B9C4CB",
"#+	c #BBC6CC",
"$+	c #BCC7CD",
"%+	c #BEC8CF",
"&+	c #C0C9D0",
"*+	c #C2CBD1",
"=+	c #C3CCD2",
"-+	c #C4CDD3",
";+	c #BFC8CF",
">+	c #BDC7CD",
",+	c #BCC6CD",
"'+	c #BAC4CB",
")+	c #B8C3C9",
"!+	c #B5C1C8",
"~+	c #929CA6",
"{+	c #909AA3",
"]+	c #B6C2C9",
"^+	c #AFBBC2",
"/+	c #B1BCC4",
"(+	c #B3BEC5",
"_+	c #B5BFC6",
":+	c #B6C1C7",
"<+	c #B7C2C9",
"[+	c #B9C3CA",
"}+	c #BBC5CB",
"|+	c #BCC5CC",
"1+	c #BCC6CC",
"2+	c #BDC6CC",
"3+	c #BAC5CA",
"4+	c #B8C2C9",
"5+	c #B6C1C8",
"6+	c #B4BFC6",
"7+	c #B1BDC4",
"8+	c #8D97A1",
"9+	c #B2BDC4",
"0+	c #A9B4BB",
"a+	c #AAB5BD",
"b+	c #ACB7BE",
"c+	c #ADB8C0",
"d+	c #AFBAC1",
"e+	c #B1BAC2",
"f+	c #B2BCC3",
"g+	c #B3BDC4",
"h+	c #B4BEC5",
"i+	c #B6BFC5",
"j+	c #B5BFC5",
"k+	c #B0BBC2",
"l+	c #B0BAC2",
"m+	c #AEB8C0",
"n+	c #ACB7BF",
"o+	c #A9B5BC",
"p+	c #8C959F",
"q+	c #ADB8BF",
"r+	c #A2AEB6",
"s+	c #A4AFB7",
"t+	c #A5B1B8",
"u+	c #A7B1BA",
"v+	c #A8B3BA",
"w+	c #A9B4BC",
"x+	c #ABB6BC",
"y+	c #ABB6BD",
"z+	c #ADB7BE",
"A+	c #AEB8BF",
"B+	c #ACB6BE",
"C+	c #AAB5BC",
"D+	c #A7B2BA",
"E+	c #A6B1B9",
"F+	c #A4B0B7",
"G+	c #89939D",
"H+	c #A9B3BB",
"I+	c #9CA8B1",
"J+	c #9EA9B1",
"K+	c #9FAAB3",
"L+	c #A0ABB3",
"M+	c #A1ACB5",
"N+	c #A3ADB6",
"O+	c #A3AFB7",
"P+	c #A5AFB7",
"Q+	c #A5B0B8",
"R+	c #A6B1B8",
"S+	c #A7B1B9",
"T+	c #A7B1B8",
"U+	c #A3AEB6",
"V+	c #A2ADB5",
"W+	c #A0ABB4",
"X+	c #A0AAB2",
"Y+	c #9DA9B2",
"Z+	c #88929C",
"`+	c #97A2AB",
" @	c #97A3AC",
".@	c #99A4AD",
"+@	c #9AA6AE",
"@@	c #9CA6AF",
"#@	c #9DA8B0",
"$@	c #9DA8B1",
"%@	c #9EA9B2",
"&@	c #9FAAB2",
"*@	c #9CA6B0",
"=@	c #9AA5AE",
"-@	c #98A3AC",
";@	c #A4AEB7",
">@	c #87909A",
",@	c #A1ABB4",
"'@	c #929DA7",
")@	c #929EA7",
"!@	c #939FA8",
"~@	c #949FA9",
"{@	c #95A0A9",
"]@	c #96A1AA",
"^@	c #97A1AB",
"/@	c #98A2AC",
"(@	c #99A3AD",
"_@	c #99A3AC",
":@	c #94A0A9",
"<@	c #939EA8",
"[@	c #858E97",
"}@	c #A1ABB3",
"|@	c #8F9AA3",
"1@	c #8E9AA3",
"2@	c #8F9AA4",
"3@	c #909AA4",
"4@	c #909BA5",
"5@	c #919CA5",
"6@	c #929DA6",
"7@	c #939DA6",
"8@	c #939DA7",
"9@	c #A2ABB3",
"0@	c #A5ADB5",
"a@	c #A4ADB4",
"b@	c #A4ACB4",
"c@	c #A4ADB5",
"d@	c #A4AEB5",
"e@	c #A5AEB6",
"f@	c #6B7480",
"g@	c #6A737F",
"                                                                        ",
"                                                                        ",
"                                                                        ",
"                                                                        ",
"                                                                        ",
"        . . . . . . . . . . . . . . +                                   ",
"      . . . @ # # # # # # # # # $ . . +                                 ",
"      . . % & & & & & & & & & & * = + . . . . . . . . . . . . .         ",
"    . . - & ; ; ; ; ; ; ; ; ; ; ; & > , , , , , , , , , , ' ) . .       ",
"    . . ! ; * * * ; ; ; ; ; ; ; ; ; & & & & & & & & & & & & ~ { .       ",
"    . . ] * ^ * * * * * * ; ; ; ; ; ; ; ; ; ; * * * * * * * & / . (     ",
"    . . _ : < [ } | 1 2 3 4 5 6 7 8 8 7 6 5 4 9 2 0 a b [ c d e . .     ",
"    . . f g h i j [ k | l m 2 n o p p o 9 q m l | r s j i h t u . .     ",
"    . . v w x g y z A B C D E F G G G H F E D I J A K y L M N v . .     ",
"    . . O P Q R S T y z U V B I W X X I C Y V Z z ` T S  ...+.O . .     ",
"    . . @.#.$.%.&.*.=.-.;.>.,.'.).!.!.!.U ,.>.;.-.=.R &.%.$.#.@.. .     ",
"    . . ~.{.].^./.(._.:.<.[.}.|.1.2.2.|.1.}.[.3.4._.5./.6.7.{.~.. .     ",
"    . . 8.9.0.a.b.c.d./.e.f.g.h.i.j.j.i.h.k.f.e.l.m.n.o.a.0.p.q.. .     ",
"    . . r.s.t.u.v.w.x.y.z.n.A.B.B.C.C.B.B.d.n.z.y.D.E.F.u.t.G.r.. .     ",
"    . . H.I.J.K.L.M.N.O.P.Q.R.S.T.U.V.U.S.R.W.P.X.Y.M.Z.K.J.I.H.. .     ",
"    . . `. +.+++@+#+$+%+&+I.*+=+=+-+-+=+=+*+I.Z.;+>+,+'+)+!+ +~+. .     ",
"    . . {+]+^+/+(+_+:+<+[+'+}+|+1+2+2+1+|+}+3+[+4+5+6+(+7+^+++{+. .     ",
"    . . 8+9+0+a+b+c+d+e+f+g+h+6+_+_+i+_+j+h+g+f+k+l+m+n+a+o+9+8+. .     ",
"    . . p+q+r+s+t+u+v+w+x+y+z+q+A+q+q+A+q+b+B+y+C+v+D+E+F+r+c+p+. .     ",
"    . . G+H+I+J+K+L+M+N+O+P+Q+R+S+S+S+S+T+Q+P+P+U+V+W+X+Y+I+H+G+. .     ",
"    . . Z+s+`+ @.@+@@@#@$@%@&@f L+L+L+L+f &@%@$@#@*@=@.@-@ @;@Z+. .     ",
"    . . >@,@'@)@!@~@{@]@^@/@/@-@(@(@(@(@_@-@/@`+]@{@:@<@)@'@,@>@. .     ",
"    . . [@}@|@1@1@2@3@4@5@5@6@7@7@8@8@7@7@6@`.5@4@3@2@1@1@|@}@[@. .     ",
"      . $ 9@0@a@a@a@a@b@c@c@c@d@e@e@e@e@d@c@c@c@b@a@a@a@a@0@9@$ .       ",
"      . . . f@g@g@g@g@g@g@g@g@g@g@g@g@g@g@g@g@g@g@g@g@g@g@f@. . .       ",
"        . . . . . . . . . . . . . . . . . . . . . . . . . . . .         ",
"                                                                        ",
"                                                                        ",
"                                                                        ",
"                                                                        ",
"                                                                        "};
