/* XPM */
static const char *info_xpm[] = {
"48 48 533 2",
"  	c None",
". 	c #3132E8",
"+ 	c #3A3BDD",
"@ 	c #2020C9",
"# 	c #1613D1",
"$ 	c #1611DB",
"% 	c #0E0AD8",
"& 	c #1613CD",
"* 	c #1716C3",
"= 	c #3A37D8",
"- 	c #332DD6",
"; 	c #6863F1",
"> 	c #2A25DE",
", 	c #3934EF",
"' 	c #0502DE",
") 	c #0202FA",
"! 	c #0000FD",
"~ 	c #0000FF",
"{ 	c #0000F7",
"] 	c #0001F3",
"^ 	c #0003F0",
"/ 	c #0304F4",
"( 	c #0000F8",
"_ 	c #0100FD",
": 	c #0400F4",
"< 	c #0200E3",
"[ 	c #1713E5",
"} 	c #3632EB",
"| 	c #332BDF",
"1 	c #4444C6",
"2 	c #2821D9",
"3 	c #140DE9",
"4 	c #0500F7",
"5 	c #0000F9",
"6 	c #0103F6",
"7 	c #0000FC",
"8 	c #0102FD",
"9 	c #0001F8",
"0 	c #0002F5",
"a 	c #0004EE",
"b 	c #0002EF",
"c 	c #0001F7",
"d 	c #0102FC",
"e 	c #0903E9",
"f 	c #1612DC",
"g 	c #231CD1",
"h 	c #1611E1",
"i 	c #100DE8",
"j 	c #0502EF",
"k 	c #0503F7",
"l 	c #0002F3",
"m 	c #0002F6",
"n 	c #0101F7",
"o 	c #0100F9",
"p 	c #0100FB",
"q 	c #0000FA",
"r 	c #0000FB",
"s 	c #0001FC",
"t 	c #0001FB",
"u 	c #0101FC",
"v 	c #0301FD",
"w 	c #0803F3",
"x 	c #170FEF",
"y 	c #2F2FCD",
"z 	c #4C4BD8",
"A 	c #0E0EDA",
"B 	c #0103EF",
"C 	c #0405F9",
"D 	c #0001F5",
"E 	c #0003F3",
"F 	c #0004F1",
"G 	c #0001FA",
"H 	c #0002FC",
"I 	c #0003F8",
"J 	c #0104F9",
"K 	c #0104FA",
"L 	c #0104FD",
"M 	c #0104FC",
"N 	c #0204F8",
"O 	c #0303FA",
"P 	c #0302FD",
"Q 	c #0203FB",
"R 	c #0003FC",
"S 	c #0303F9",
"T 	c #0506EE",
"U 	c #0100EA",
"V 	c #2326D3",
"W 	c #3436DC",
"X 	c #0000D8",
"Y 	c #0101FB",
"Z 	c #0002F8",
"` 	c #0002FB",
" .	c #0001FE",
"..	c #0000FE",
"+.	c #2B2DEE",
"@.	c #797AEC",
"#.	c #8482E9",
"$.	c #8081E9",
"%.	c #7F83E9",
"&.	c #8282E9",
"*.	c #8480E6",
"=.	c #8580E7",
"-.	c #8580E9",
";.	c #8687EB",
">.	c #1C18E8",
",.	c #0302FE",
"'.	c #0002FD",
").	c #0003FD",
"!.	c #0101FD",
"~.	c #0E0EC6",
"{.	c #1D1BE5",
"].	c #0001EE",
"^.	c #0101F9",
"/.	c #0201F9",
"(.	c #5C5BF2",
"_.	c #F9F8FF",
":.	c #FFFFFF",
"<.	c #3932E4",
"[.	c #0406FC",
"}.	c #0708DB",
"|.	c #4440DF",
"1.	c #130FE2",
"2.	c #0301F9",
"3.	c #0302F8",
"4.	c #0100FC",
"5.	c #5859ED",
"6.	c #F0F3FE",
"7.	c #FCF9F9",
"8.	c #FDFFFA",
"9.	c #FBFFF9",
"0.	c #FEFEFA",
"a.	c #FFFEFD",
"b.	c #FFFEFA",
"c.	c #FFFFFC",
"d.	c #FDFFFF",
"e.	c #3530DE",
"f.	c #0102F4",
"g.	c #0403F8",
"h.	c #0703E9",
"i.	c #4140E2",
"j.	c #1D1FDF",
"k.	c #0201F8",
"l.	c #0001F6",
"m.	c #0101FA",
"n.	c #5A5BED",
"o.	c #F2F4FD",
"p.	c #FFFDFC",
"q.	c #FDFFF9",
"r.	c #FDFDFA",
"s.	c #FDFDFB",
"t.	c #FEFFF7",
"u.	c #FEFFFB",
"v.	c #0300FD",
"w.	c #0003FE",
"x.	c #0201FD",
"y.	c #0306FE",
"z.	c #0303E8",
"A.	c #4E4AD9",
"B.	c #0000E6",
"C.	c #0103FC",
"D.	c #0003F6",
"E.	c #0002F4",
"F.	c #5858EE",
"G.	c #F2F3FE",
"H.	c #FFFCFF",
"I.	c #FEFFFF",
"J.	c #FCFFFC",
"K.	c #FEFDFC",
"L.	c #FFFEFF",
"M.	c #FFFEFE",
"N.	c #3830E7",
"O.	c #0002FA",
"P.	c #1311D9",
"Q.	c #514FDA",
"R.	c #0A07D7",
"S.	c #0101F8",
"T.	c #0002F9",
"U.	c #5959EE",
"V.	c #F4F5FE",
"W.	c #FFFFFE",
"X.	c #FEFFFC",
"Y.	c #FFFFFD",
"Z.	c #3831E3",
"`.	c #0402FD",
" +	c #0401F8",
".+	c #2521DD",
"++	c #1816D0",
"@+	c #0100F6",
"#+	c #0003F1",
"$+	c #5350F3",
"%+	c #E2E5FF",
"&+	c #F0F0FF",
"*+	c #EDEEFF",
"=+	c #ECEEFF",
"-+	c #EEEEFF",
";+	c #EEF0FF",
">+	c #EEEFFF",
",+	c #EDF3FF",
"'+	c #3430E1",
")+	c #0200EF",
"!+	c #0103FE",
"~+	c #0200FB",
"{+	c #0503FA",
"]+	c #0001E5",
"^+	c #2023DD",
"/+	c #2B27DA",
"(+	c #0200F5",
"_+	c #0104FB",
":+	c #0100FA",
"<+	c #0E0AEF",
"[+	c #1B1BDD",
"}+	c #181BCF",
"|+	c #1B1BE1",
"1+	c #1D19E7",
"2+	c #1F1BD9",
"3+	c #1D1BDB",
"4+	c #1C1DD4",
"5+	c #1B1BE2",
"6+	c #1B1FE3",
"7+	c #0708E7",
"8+	c #0301EE",
"9+	c #0201FE",
"0+	c #0B0AF3",
"a+	c #1512D5",
"b+	c #0808FE",
"c+	c #0102F9",
"d+	c #0001FD",
"e+	c #0203F6",
"f+	c #0000F3",
"g+	c #0000F4",
"h+	c #0100F8",
"i+	c #0200F4",
"j+	c #0200EE",
"k+	c #0100F3",
"l+	c #0204F9",
"m+	c #0006EC",
"n+	c #0001F2",
"o+	c #0100F4",
"p+	c #2621D4",
"q+	c #2C23DE",
"r+	c #0904EE",
"s+	c #1415EF",
"t+	c #3234EC",
"u+	c #3D38F4",
"v+	c #3A35EC",
"w+	c #3A36E8",
"x+	c #3939DC",
"y+	c #393ADA",
"z+	c #3837E5",
"A+	c #373AE7",
"B+	c #0E10F1",
"C+	c #0107F3",
"D+	c #120DE6",
"E+	c #1E17E9",
"F+	c #0000F5",
"G+	c #5250E9",
"H+	c #DBE2FE",
"I+	c #EAECFD",
"J+	c #ECECFB",
"K+	c #ECEBFF",
"L+	c #EAECFF",
"M+	c #EBECFF",
"N+	c #EAEDFF",
"O+	c #ECF0FF",
"P+	c #322CE2",
"Q+	c #0401F2",
"R+	c #0102FE",
"S+	c #0605F3",
"T+	c #3031D2",
"U+	c #0A05EA",
"V+	c #0003F4",
"W+	c #5E56F0",
"X+	c #F1F6FB",
"Y+	c #FFFEFB",
"Z+	c #FFFFEF",
"`+	c #FFFFF9",
" @	c #FFFDFE",
".@	c #FFFFF7",
"+@	c #3C2FE1",
"@@	c #0700F6",
"#@	c #1E1ED8",
"$@	c #2C29E0",
"%@	c #0000EB",
"&@	c #0002F7",
"*@	c #585AE8",
"=@	c #ECF6FD",
"-@	c #FDFBFF",
";@	c #FFFEF6",
">@	c #FEFEF4",
",@	c #FCFEFF",
"'@	c #FCFFF4",
")@	c #FFFFF6",
"!@	c #3730E5",
"~@	c #0203F0",
"{@	c #0004FD",
"]@	c #0106F9",
"^@	c #0904E9",
"/@	c #2323EA",
"(@	c #0002F2",
"_@	c #0000F6",
":@	c #575AE8",
"<@	c #EEF5FD",
"[@	c #FEFBFE",
"}@	c #FEFFFA",
"|@	c #FDFEFE",
"1@	c #FDFEFA",
"2@	c #FFFFFA",
"3@	c #3630E9",
"4@	c #0202FC",
"5@	c #0005FC",
"6@	c #0101F5",
"7@	c #0000F1",
"8@	c #3738D8",
"9@	c #0B0CEA",
"0@	c #F2F4FE",
"a@	c #FBFFFB",
"b@	c #FEFEFB",
"c@	c #382FE8",
"d@	c #0300FE",
"e@	c #0100FE",
"f@	c #0302FF",
"g@	c #4143EC",
"h@	c #FCFFFB",
"i@	c #0201FC",
"j@	c #2222DE",
"k@	c #2E2CC2",
"l@	c #0200F1",
"m@	c #0101FE",
"n@	c #0906D5",
"o@	c #2320C6",
"p@	c #0302F0",
"q@	c #0903E3",
"r@	c #1B16C6",
"s@	c #0303EB",
"t@	c #0104F2",
"u@	c #0103FB",
"v@	c #0902E9",
"w@	c #1917C8",
"x@	c #0305F1",
"y@	c #0001F9",
"z@	c #0202F8",
"A@	c #0B05EA",
"B@	c #191CC1",
"C@	c #0003E9",
"D@	c #0103F7",
"E@	c #0203FC",
"F@	c #0806E3",
"G@	c #2E32C0",
"H@	c #0202F0",
"I@	c #0200FD",
"J@	c #0001FF",
"K@	c #0905E0",
"L@	c #2725E2",
"M@	c #0E0EE1",
"N@	c #0000F2",
"O@	c #3F3FD9",
"P@	c #2A2BE0",
"Q@	c #0100F7",
"R@	c #0200FC",
"S@	c #0305FA",
"T@	c #0000E8",
"U@	c #3436C2",
"V@	c #2D2FEB",
"W@	c #0201EE",
"X@	c #0300F9",
"Y@	c #0706E5",
"Z@	c #0B06EC",
"`@	c #0201FB",
" #	c #0005FD",
".#	c #0002F1",
"+#	c #2422E6",
"@#	c #1914E8",
"##	c #0105F8",
"$#	c #0003F9",
"%#	c #0001EC",
"&#	c #3C39E7",
"*#	c #2A23DD",
"=#	c #0904F1",
"-#	c #0205F2",
";#	c #1514E7",
">#	c #130CEC",
",#	c #0303FB",
"'#	c #0202F7",
")#	c #0403FE",
"!#	c #0302FB",
"~#	c #0401F6",
"{#	c #1310CE",
"]#	c #2E26E2",
"^#	c #0401F7",
"/#	c #0506F9",
"(#	c #0B0BDF",
"_#	c #1516D7",
":#	c #0405FD",
"<#	c #FFFFF8",
"[#	c #0302F9",
"}#	c #0306E5",
"|#	c #232AD0",
"1#	c #4A4EE1",
"2#	c #0503DF",
"3#	c #5756EE",
"4#	c #F0F2FF",
"5#	c #FFFCFE",
"6#	c #FEFDFD",
"7#	c #FDFEFD",
"8#	c #FEFEFD",
"9#	c #372FE6",
"0#	c #0102FA",
"a#	c #0402F7",
"b#	c #1E1FD5",
"c#	c #534BE4",
"d#	c #0002EE",
"e#	c #0305F2",
"f#	c #5C59EB",
"g#	c #EFF6FA",
"h#	c #FDFBFE",
"i#	c #FFFBFD",
"j#	c #FDFEF7",
"k#	c #FAFFFB",
"l#	c #F9FFF7",
"m#	c #FCFBFE",
"n#	c #FEFFEE",
"o#	c #3830E1",
"p#	c #0105FA",
"q#	c #1612E5",
"r#	c #2323E0",
"s#	c #0101EB",
"t#	c #0004F3",
"u#	c #0003F5",
"v#	c #5055E9",
"w#	c #DEE9FE",
"x#	c #EBECFE",
"y#	c #F5F2FD",
"z#	c #F1F6FD",
"A#	c #EDF5FE",
"B#	c #EFF3FE",
"C#	c #F1F7FD",
"D#	c #F2F6FF",
"E#	c #322CE6",
"F#	c #0403FA",
"G#	c #0001F4",
"H#	c #0304F9",
"I#	c #0107F5",
"J#	c #0102F1",
"K#	c #0804EF",
"L#	c #1713E1",
"M#	c #0102F8",
"N#	c #0004F5",
"O#	c #0004F0",
"P#	c #0201F7",
"Q#	c #0609EC",
"R#	c #1215DD",
"S#	c #1813E6",
"T#	c #1A13DF",
"U#	c #1816D2",
"V#	c #1515E2",
"W#	c #1417DC",
"X#	c #1514E6",
"Y#	c #1816D3",
"Z#	c #1C19DA",
"`#	c #0B06F1",
" $	c #0101F4",
".$	c #0204FA",
"+$	c #0B0AEF",
"@$	c #3E3EE3",
"#$	c #2B2BE8",
"$$	c #0405F8",
"%$	c #0302F7",
"&$	c #0100F0",
"*$	c #0200F9",
"=$	c #0101F6",
"-$	c #0103F3",
";$	c #0202F9",
">$	c #0504FB",
",$	c #0904EC",
"'$	c #4240E6",
")$	c #3835DA",
"!$	c #0200E9",
"~$	c #0708F7",
"{$	c #0403FB",
"]$	c #0404FA",
"^$	c #0303F3",
"/$	c #0F0BDA",
"($	c #3C37DA",
"_$	c #4245DE",
":$	c #0C11E4",
"<$	c #0400FD",
"[$	c #0200F7",
"}$	c #0002F0",
"|$	c #0201F6",
"1$	c #0103E0",
"2$	c #1E24D5",
"3$	c #150FEE",
"4$	c #0F09F8",
"5$	c #0300F6",
"6$	c #0400F6",
"7$	c #0702FB",
"8$	c #0301F8",
"9$	c #0300FC",
"0$	c #0300F5",
"a$	c #0300F8",
"b$	c #0103F4",
"c$	c #0203F9",
"d$	c #0402F3",
"e$	c #160EE5",
"f$	c #3130CA",
"g$	c #4743DB",
"h$	c #2621DE",
"i$	c #1510ED",
"j$	c #0500F8",
"k$	c #0104F5",
"l$	c #0403FC",
"m$	c #0604F0",
"n$	c #1412E9",
"o$	c #231EDF",
"p$	c #3026EA",
"q$	c #3930EE",
"r$	c #0A04D9",
"s$	c #0104F1",
"t$	c #0200E8",
"u$	c #1312DF",
"v$	c #3A3AE8",
"w$	c #3A33DD",
"x$	c #2B2EDA",
"y$	c #4346DA",
"z$	c #2526CA",
"A$	c #1817C7",
"B$	c #1715CC",
"C$	c #100DC8",
"D$	c #1412D7",
"E$	c #1714D3",
"F$	c #3937E0",
"G$	c #2F2CD5",
"H$	c #6B69F1",
"                                      . + @ # $ % & * = - ;                                     ",
"                                > , ' ) ! ~ { ] ^ / ( _ : < [ } |                               ",
"                          1 2 3 4 5 6 7 ! 8 5 9 0 a b c d 7 7 { e f g                           ",
"                        h i j k l m ^ n o p q r q r s s t t t t u v w x y                       ",
"                    z A B C D E F G H I J K L L M N O P Q G H t R G S T U V                     ",
"                  W X Y Z Z `  .....r +.@.#.$.%.&.*.=.-.;.>.,.'.8 7 ).q !.~ ~.                  ",
"                {.].^./._ ......! ..5 (._.:.:.:.:.:.:.:.:.<.o H ............[.}.|.              ",
"              1.2.H 8 3.4.........! ( 5.6.7.8.9.0.a.b.c.d.e.{ R ..........! f.g.h.i.            ",
"            j.k.J G l.m.! ..........5 n.o.p.q.9.r.s.t.u.:.<.v.w.! ..........x.O y.z.            ",
"          A.B.C.{ D.9 E.t ..........5 F.G.H.I.J.K.L.M.L.:.N.v.'.............! E O. .P.          ",
"        Q.R.) S.r l T.F G ..........5 U.V.W.W.X.c.W.Y.W.:.Z.v.).............H Z 0 `. +.+        ",
"        ++k.4.@+q G #+D.! ........! 5 $+%+&+*+=+-+-+;+>+,+'+)+!+............O.'.r ~+{+]+^+      ",
"      /+(+_+! ! ! ! ! ! ..! ......! :+<+[+}+|+1+2+3+4+5+6+7+8+9+..! ........! ....! ! 7 0+      ",
"      a+b+c+! ....................! d+e+f+g+h+i+j+i+k+r 5 l+m+n+........................o+p+    ",
"    q+r+] H ..! ..................! r s+t+u+v+w+w+x+y+z+A+B+C+D.........................4.D+    ",
"    E+~+a H ......................! F+G+H+I+J+K+L+L+M+N+O+P+Q+R+..! ..................! ..S+T+  ",
"    U+! V+d+........................( W+X+Y+Z+`+c.W. @.@:.+@@@!.......................! d+9 #@  ",
"  $@%@&@d+d+......................! F+*@=@-@;@>@,@'@W.)@:.!@~@{@........................H ]@^@  ",
"  /@^.(@d+d+......................! _@:@<@[@}@8.|@1@Y.2@:.3@4@5@........................t 6@7@8@",
"  9@..@+4. .! ......................5 5.0@ @u.a@b@L.}@.@:.c@d@).......................! e@f@_@g@",
"  %@~ :+t  .! ......................( 5.0@ @u.h@b@L.2@.@:.c@v.)........................._ i@r j@",
"k@l@r _ G '.........................( 5.0@ @u.h@b@L.2@.@:.c@v.).........................e@x.m@n@",
"o@p@m _ Z '.........................( 5.0@ @u.h@b@L.2@.@:.c@v.)........................._ ~+8 q@",
"r@s@t@_ T.'.........................( 5.0@ @u.h@b@L.2@.@:.c@v.)........................._ k.u@v@",
"w@z.x@p y@H ........................( 5.0@ @u.h@b@L.2@.@:.c@v.).......................! _ z@T.A@",
"B@C@D@:+9 s ........................( 5.0@ @u.h@b@L.2@.@:.c@v.).........................d+E@r F@",
"G@H@t I@l.d+........................( 5.0@ @u.h@b@L.2@.@:.c@v.).......................! ! p J@K@",
"  U 5 I@c d+........................( 5.0@ @u.h@b@L.2@.@:.c@v.).......................! ! !.7 L@",
"  M@{ I@G d+........................( 5.0@ @u.h@b@L.2@.@:.c@v.).........................! 4@N@O@",
"  P@Q@R@d+H ..! ....................( 5.0@ @u.h@b@L.2@.@:.c@v.).........................t S@T@U@",
"  V@W@X@s I ! ......................( 5.0@ @u.h@b@L.2@.@:.c@v.)...........! ..! ! ......t D@Y@  ",
"    Z@`@ #V+........................( 5.0@ @u.h@b@L.2@.@:.c@v.).............7 e@e@_ o ^.l..#+#  ",
"    @#k.##$#........................( 5.0@ @u.h@b@L.2@.@:.c@v.).............! e@_ 4.o r y@%#&#  ",
"    *#=#-#w...! ....................( 5.0@ @u.h@b@L.2@.@:.c@v.)...........! .._ o q ! ..r ;#    ",
"      >#,#T.........................( 5.0@ @u.h@b@L.2@.@:.c@v.)...............p (@'#)#!#~#{#    ",
"      ]#^#d ........................( 5.0@ @u.h@b@L.2@.@:.c@v.)...............m.] ^.!#/#(#      ",
"        _#:#......! ....! ..........( 5.0@ @u.a@b@L.2@<#:.c@v.).....! ......! m.6@r [#}#|#      ",
"        1#2# .s 8 ..! d+............5 3#4#5#6#7#8#L.p.)@:.9#I@{@G ! ..! ....t 5 t 0#a#b#        ",
"          c#d#e#^.t G ` d+........! _@f#g#h#i#j#k#l#m#n#I.o#h+p#( _ e@e@_ r m O.y@i@q#          ",
"            r#s#d t#u#m ! ........! g+v#w#x#y#z#A#=@B#C#D#E#F#T.e@e@p S.D G#H#I#J#K#            ",
"              L#M#N#O#P#! ........! r Q#R#S#T#U#V#W#X#Y#Z#`#7 ( e@_ S.G# $S..$g++$@$            ",
"                #$7@$$%$! ! ......! d+O.r ! ! _@r q 7 5 &$*$=$-$! _ r ;$>$u z@,$'$              ",
"                  )$!$~$t ........! G G#G#D ! c 9 Z s ! t ! ! y@p _ ! {$]$^$/$($                ",
"                    _$:$G ....! ...._ <$[$}$! :+|$4...d+t V+&@r p ! ..S.1$2$                    ",
"                        3$4$5$9+r '.D.6$7$8$v.9$X@0$a$e@Y b$c$5 q x.d$e$f$                      ",
"                          g$h$i$j$p k$l$e@i@_ m.n S.Y s ) 0#q o m$n$o$                          ",
"                                p$q$r$s$( ! ~ ~ ~ G ..~ h+t$u$v$w$                              ",
"                                      x$y$z$A$B$C$D$E$F$G$H$                                    "};
