/* XPM */
static const  char * open_xpm[] = {
"16 16 97 2",
"  	c None",
". 	c #A2ABB4",
"+ 	c #6E7C8A",
"@ 	c #6C7A88",
"# 	c #B5BFCA",
"$ 	c #DEE6EF",
"% 	c #88939E",
"& 	c #6A7886",
"* 	c #C8D6E4",
"= 	c #687583",
"- 	c #CAD7E5",
"; 	c #657380",
"> 	c #CCD9E6",
", 	c #C1CFDD",
"' 	c #2D4963",
") 	c #2B4761",
"! 	c #6C7F91",
"~ 	c #626F7D",
"{ 	c #CEDBE7",
"] 	c #9EAFBF",
"^ 	c #3E5A73",
"/ 	c #ABC7E1",
"( 	c #708CA5",
"_ 	c #96A4B0",
": 	c #5F6C79",
"< 	c #D1DDE9",
"[ 	c #788C9F",
"} 	c #617D97",
"| 	c #A2BED8",
"1 	c #616F7D",
"2 	c #5C6975",
"3 	c #D5DFEA",
"4 	c #52687E",
"5 	c #7A95AF",
"6 	c #93AFC9",
"7 	c #5F6C7A",
"8 	c #F6F9FC",
"9 	c #586571",
"0 	c #D4DEE8",
"a 	c #314C63",
"b 	c #85A1BB",
"c 	c #86A2BC",
"d 	c #5B6876",
"e 	c #F2F6FA",
"f 	c #909DA9",
"g 	c #B0BAC3",
"h 	c #9CA7B3",
"i 	c #55616D",
"j 	c #B1BEC9",
"k 	c #435E76",
"l 	c #7F9BB5",
"m 	c #576471",
"n 	c #EBF2F8",
"o 	c #DAE0E6",
"p 	c #DFE6EB",
"q 	c #DCE3E9",
"r 	c #525E6A",
"s 	c #83929F",
"t 	c #5C7690",
"u 	c #7793AD",
"v 	c #525F6C",
"w 	c #E4ECF5",
"x 	c #8C9AA8",
"y 	c #A9B5C1",
"z 	c #96A3B1",
"A 	c #4F5A66",
"B 	c #55697A",
"C 	c #6F8BA5",
"D 	c #728EA8",
"E 	c #4D5966",
"F 	c #DFE9F3",
"G 	c #CFD8E1",
"H 	c #D1DAE4",
"I 	c #4C5864",
"J 	c #40586E",
"K 	c #6D89A2",
"L 	c #6E8AA4",
"M 	c #485460",
"N 	c #DAE6F2",
"O 	c #8998A7",
"P 	c #A3B1BF",
"Q 	c #93A1B0",
"R 	c #505C68",
"S 	c #425A71",
"T 	c #6A86A0",
"U 	c #434F5B",
"V 	c #D6E3F0",
"W 	c #C7D3DF",
"X 	c #CBD8E4",
"Y 	c #C9D5E1",
"Z 	c #8B949C",
"` 	c #1B3146",
" .	c #1A3146",
"..	c #193045",
"+.	c #3F4B57",
"@.	c #D4E2EF",
"#.	c #3B4752",
"  . + + + + .                   ",
"  @ # $ $ # @                   ",
"% & * * * * & & & & & & & &     ",
"= - - - - - - - - - - - - =     ",
"; > , ' ) ) ) ) ) ) ) ) ) ) ) ! ",
"~ { ] ^ / / / / / / / / / / ( _ ",
": < [ } | | | 1 1 1 1 1 1 1 1 1 ",
"2 3 4 5 6 6 6 7 8 8 8 8 8 8 8 7 ",
"9 0 a b c c c d e f f g h f e d ",
"i j k l l l l m n o o p q o n m ",
"r s t u u u u v w x y z w w w v ",
"A B C D D D D E F G 0 H F F F E ",
"I J K L L L L M N O O P Q O N M ",
"R S T T T T T U V W W X Y W V U ",
"Z `  .........+.@.@.@.@.@.@.@.+.",
"              #.#.#.#.#.#.#.#.#."};
