/* XPM */
static char * person_36x36_xpm[] = {
"36 36 328 2",
"  	c None",
". 	c #CC9900",
"+ 	c #C99400",
"@ 	c #D3A623",
"# 	c #DFBC5B",
"$ 	c #E5C875",
"% 	c #DFBC5C",
"& 	c #CB9800",
"* 	c #CB9700",
"= 	c #D6AC34",
"- 	c #F8EAC7",
"; 	c #FFFDF7",
"> 	c #FFF9EE",
", 	c #FFF8ED",
"' 	c #FFF9ED",
") 	c #FFFDF8",
"! 	c #F8EAC8",
"~ 	c #D6AD34",
"{ 	c #F0D89D",
"] 	c #FFF6E5",
"^ 	c #FFF4DF",
"/ 	c #FFF4E0",
"( 	c #FFF5E3",
"_ 	c #FFF4E1",
": 	c #CC9800",
"< 	c #F5E0B1",
"[ 	c #FFF2DB",
"} 	c #FFF0D5",
"| 	c #FFF1D9",
"1 	c #FFF2DC",
"2 	c #FFF2DD",
"3 	c #FFF3DB",
"4 	c #F5E1B1",
"5 	c #E2BE5B",
"6 	c #FFEFD3",
"7 	c #FFEDCC",
"8 	c #FFEED0",
"9 	c #FFF0D4",
"0 	c #FFF1D7",
"a 	c #FFF1DA",
"b 	c #FFF2DA",
"c 	c #FFEED1",
"d 	c #FFEDCD",
"e 	c #FFF0D3",
"f 	c #E2BE5C",
"g 	c #D09F11",
"h 	c #FFF2D8",
"i 	c #FFEAC3",
"j 	c #FFEBC6",
"k 	c #FFECCA",
"l 	c #FFEECE",
"m 	c #FFEFD2",
"n 	c #FFEECF",
"o 	c #FFEDCB",
"p 	c #FFEBC7",
"q 	c #FFF3D9",
"r 	c #E1BB54",
"s 	c #FFEAC4",
"t 	c #FFE8BB",
"u 	c #FFEAC0",
"v 	c #FFECC8",
"w 	c #FFEDCA",
"x 	c #FFEECD",
"y 	c #FFECC9",
"z 	c #FFEBC4",
"A 	c #FFE9C1",
"B 	c #FFE8BC",
"C 	c #E2BB54",
"D 	c #F5D999",
"E 	c #FFE6B7",
"F 	c #FFE5B5",
"G 	c #FFE7B9",
"H 	c #FFE8BD",
"I 	c #FFEAC2",
"J 	c #FFEBC5",
"K 	c #FFECC6",
"L 	c #FFE7BA",
"M 	c #F6D999",
"N 	c #C89400",
"O 	c #FFE7B8",
"P 	c #FFE2AB",
"Q 	c #FFE3AD",
"R 	c #FFE4B2",
"S 	c #FFE5B6",
"T 	c #FFE7BB",
"U 	c #FFE6B9",
"V 	c #FFE6B5",
"W 	c #FFE4B3",
"X 	c #FFE3AF",
"Y 	c #FFE2AC",
"Z 	c #C99500",
"` 	c #FFE9BB",
" .	c #FFDFA2",
"..	c #FFE0A6",
"+.	c #FFE2A9",
"@.	c #FFE4B0",
"#.	c #FFE5B3",
"$.	c #FFE5B4",
"%.	c #C89500",
"&.	c #FFDD9C",
"*.	c #FFDD9D",
"=.	c #FFDFA1",
"-.	c #FFE0A4",
";.	c #FFE1A7",
">.	c #FFE1A9",
",.	c #FFE2AA",
"'.	c #FFDD9E",
").	c #F5D385",
"!.	c #FFDC9A",
"~.	c #FFDB96",
"{.	c #FFDC98",
"].	c #FFDD9B",
"^.	c #FFDE9D",
"/.	c #FFDFA0",
"(.	c #E2B646",
"_.	c #FFD88C",
":.	c #FFD98F",
"<.	c #FFDA91",
"[.	c #FFDB94",
"}.	c #FFDB97",
"|.	c #FFDA92",
"1.	c #FFD88D",
"2.	c #FFDE9E",
"3.	c #E2B746",
"4.	c #D09E0D",
"5.	c #FFE1A5",
"6.	c #FFD687",
"7.	c #FFD786",
"8.	c #FFD789",
"9.	c #FFD78A",
"0.	c #FFD98D",
"a.	c #FFD98E",
"b.	c #FFD88B",
"c.	c #FFD787",
"d.	c #D09900",
"e.	c #E1B540",
"f.	c #FFDC97",
"g.	c #FFD47F",
"h.	c #FFD480",
"i.	c #FFD582",
"j.	c #FFD583",
"k.	c #FFD684",
"l.	c #E1B541",
"m.	c #719900",
"n.	c #CF9900",
"o.	c #F4CE75",
"p.	c #FFDB91",
"q.	c #FFD278",
"r.	c #FFD279",
"s.	c #FFD37A",
"t.	c #FFD37B",
"u.	c #009900",
"v.	c #9F9700",
"w.	c #EFC562",
"x.	c #FFD481",
"y.	c #FFD072",
"z.	c #FFD073",
"A.	c #009200",
"B.	c #62CE4D",
"C.	c #B0F58B",
"D.	c #CBA211",
"E.	c #D6A61E",
"F.	c #F7CF75",
"G.	c #FFDC91",
"H.	c #FFD887",
"I.	c #CBA212",
"J.	c #B1F58C",
"K.	c #63CE4E",
"L.	c #009600",
"M.	c #84E364",
"N.	c #B2FC89",
"O.	c #A6F87B",
"P.	c #A8FA82",
"Q.	c #C3BA31",
"R.	c #CD9500",
"S.	c #C99600",
"T.	c #D2A112",
"U.	c #DEB033",
"V.	c #E4B640",
"W.	c #A9FA83",
"X.	c #A7F87C",
"Y.	c #B3FC8A",
"Z.	c #83E364",
"`.	c #009800",
" +	c #7EDF5E",
".+	c #A4F579",
"++	c #94F363",
"@+	c #9AF46D",
"#+	c #A3F478",
"$+	c #AAF888",
"%+	c #B9DC68",
"&+	c #C9A618",
"*+	c #CC9700",
"=+	c #CD9900",
"-+	c #BBDC69",
";+	c #ABF88A",
">+	c #A4F47A",
",+	c #9BF46E",
"'+	c #95F364",
")+	c #A5F57A",
"!+	c #2FB123",
"~+	c #A0F176",
"{+	c #8AED55",
"]+	c #8DEE5B",
"^+	c #93EF63",
"/+	c #9AF06E",
"(+	c #A2F179",
"_+	c #AAF285",
":+	c #B2F593",
"<+	c #BAF59C",
"[+	c #CBD777",
"}+	c #B3A419",
"|+	c #BB9900",
"1+	c #CCD778",
"2+	c #BAF59E",
"3+	c #B4F494",
"4+	c #ABF386",
"5+	c #A3F17B",
"6+	c #9BF070",
"7+	c #94EF65",
"8+	c #8EED5C",
"9+	c #8AED56",
"0+	c #009500",
"a+	c #98EA6F",
"b+	c #8BE95A",
"c+	c #83E84F",
"d+	c #85E851",
"e+	c #8AE959",
"f+	c #92EA63",
"g+	c #99EC6D",
"h+	c #A0ED78",
"i+	c #A7EE82",
"j+	c #ADF08B",
"k+	c #B9F29D",
"l+	c #ADEA9A",
"m+	c #BAF29E",
"n+	c #AEF08C",
"o+	c #A8EE83",
"p+	c #A1ED7A",
"q+	c #99EC6F",
"r+	c #93EB64",
"s+	c #8BE95B",
"t+	c #86E852",
"u+	c #20A917",
"v+	c #9EEB72",
"w+	c #7CE248",
"x+	c #7EE24A",
"y+	c #81E34F",
"z+	c #87E457",
"A+	c #8DE560",
"B+	c #94E769",
"C+	c #9AE872",
"D+	c #A1E97B",
"E+	c #A5EB81",
"F+	c #C5F5A7",
"G+	c #14A211",
"H+	c #A6EB82",
"I+	c #A1E97C",
"J+	c #9CE973",
"K+	c #95E76A",
"L+	c #8FE561",
"M+	c #88E457",
"N+	c #82E350",
"O+	c #3EB72C",
"P+	c #90E365",
"Q+	c #78DC44",
"R+	c #79DC45",
"S+	c #7CDD4B",
"T+	c #83DE52",
"U+	c #87E059",
"V+	c #8EE262",
"W+	c #92E368",
"X+	c #97E46E",
"Y+	c #ADE98D",
"Z+	c #41B636",
"`+	c #ADEA8D",
" @	c #97E56F",
".@	c #93E469",
"+@	c #8EE263",
"@@	c #88E05B",
"#@	c #83DF53",
"$@	c #7DDE4B",
"%@	c #48BC33",
"&@	c #89DD5D",
"*@	c #73D73F",
"=@	c #74D740",
"-@	c #77D846",
";@	c #7CD94B",
">@	c #80DB52",
",@	c #84DB57",
"'@	c #88DD5C",
")@	c #97E170",
"!@	c #75D05E",
"~@	c #76D05E",
"{@	c #89DD5C",
"]@	c #85DC58",
"^@	c #81DB52",
"/@	c #7CDA4C",
"(@	c #78D846",
"_@	c #74D741",
":@	c #46BB31",
"<@	c #85D959",
"[@	c #6ED23A",
"}@	c #71D33F",
"|@	c #74D443",
"1@	c #78D547",
"2@	c #7AD64B",
"3@	c #7CD74E",
"4@	c #99DF73",
"5@	c #99DF74",
"6@	c #7DD74E",
"7@	c #7BD64C",
"8@	c #79D548",
"9@	c #75D443",
"0@	c #72D33F",
"a@	c #6ED23B",
"b@	c #45B930",
"c@	c #87D85D",
"d@	c #81D656",
"e@	c #82D757",
"f@	c #84D759",
"g@	c #86D85A",
"h@	c #8BD962",
"i@	c #86D85C",
"j@	c #22A818",
"k@	c #44B82F",
"l@	c #43B82F",
"m@	c #44B830",
"                                                                        ",
"                                                                        ",
"                                . . . .                                 ",
"                          . . . . . . . . . .                           ",
"                      . . . + @ # $ $ % @ + . . .                       ",
"                    & . * = - ; > , ' > ) ! ~ * . &                     ",
"                  . . . { ] ^ / ( ] ] ( _ / ] { . . :                   ",
"                . . . < [ } | 1 ^ / _ ^ 2 | } 3 4 . . .                 ",
"                . * 5 6 7 8 9 0 a [ [ b 0 } c d e f * .                 ",
"              & . g h i j k l m e } } 9 m n o p i q g . &               ",
"              . . r s t u s v w x x x x o y z A B s C . .               ",
"              . + D E F G H A I J K K J i A H L F E M + .               ",
"              . N O P Q R S G L H H H H T U V W X Y G N .               ",
"              . Z `  ...+.Q @.#.#.V V $.#.@.Q P .. .` Z .               ",
"              . %.Q &.*.=.-.;.>.,.P P ,.>.;.-.=.'.*.Q %..               ",
"              . Z ).!.~.{.].^./.=. . .=./.^.].{.~.!.).Z .               ",
"              . . (.'._.:.<.[.~.}.{.{.}.~.[.|.:.1.2.3.. .               ",
"              & . 4.5.6.7.8.9._.0.a.a.a._.b.8.c.6.5.4.. &               ",
"                d.* e.f.g.h.i.j.k.k.k.k.j.i.h.g.f.l.* d.                ",
"                m.n.. o.p.q.r.s.t.t.t.t.s.r.r.p.o.. n.m.                ",
"            u.u.u.v.. . w.p.x.y.z.z.z.z.y.x.p.w.. . v.u.u.u.            ",
"          u.u.A.B.C.D.. * E.F.G.H.k.k.H.G.F.E.* . I.J.K.A.u.u.          ",
"        u.u.L.M.N.O.P.Q.R.. S.T.U.V.V.U.T.S.. R.Q.W.X.Y.Z.L.u.u.        ",
"        u.`. +.+++@+#+$+%+&+: *+=+. . =+*+: &+-+;+>+,+'+)+ +`.u.        ",
"      u.u.!+~+{+]+^+/+(+_+:+<+[+}+|+|+}+1+2+3+4+5+6+7+8+9+~+!+u.u.      ",
"      u.0+a+b+c+d+e+f+g+h+i+j+k+l+0+0+l+m+n+o+p+q+r+s+t+c+b+a+0+u.      ",
"      u.u+v+w+x+x+y+z+A+B+C+D+E+F+G+G+F+H+I+J+K+L+M+N+x+x+w+v+u+u.      ",
"    `.u.O+P+Q+Q+Q+R+S+T+U+V+W+X+Y+Z+Z+`+ @.@+@@@#@$@R+Q+Q+Q+P+O+u.`.    ",
"    u.u.%@&@*@*@*@*@=@-@;@>@,@'@)@!@~@)@{@]@^@/@(@_@*@*@*@*@&@%@u.u.    ",
"    u.u.:@<@[@[@[@[@[@[@}@|@1@2@3@4@5@6@7@8@9@0@a@[@[@[@[@[@<@:@u.u.    ",
"    u.u.b@c@d@d@d@d@d@d@d@e@f@g@c@h@h@c@i@f@e@d@d@d@d@d@d@d@c@b@u.u.    ",
"    u.u.j@k@k@k@k@k@k@k@k@k@l@l@k@m@m@m@l@l@l@k@k@k@k@k@k@k@k@j@u.u.    ",
"      u.u.u.u.u.u.u.u.u.u.u.u.u.u.u.u.u.u.u.u.u.u.u.u.u.u.u.u.u.u.      ",
"        u.u.u.u.u.u.u.u.u.u.u.u.u.u.u.u.u.u.u.u.u.u.u.u.u.u.u.u.        ",
"                                                                        ",
"                                                                        "};
