/* XPM */
static const char *question_xpm[] = {
"48 48 4 1",
" 	c None",
".	c #0000F5",
"+	c #0000F6",
"@	c #0000F7",
"                                                ",
"                                                ",
"                                                ",
"                                                ",
"                                                ",
"                  .++++++++                     ",
"               ++@@@@@@@@@@@@@+                 ",
"            ++@@@@@@@@@@@@@@@@@@                ",
"           @@@@@@@@@@@@@@@@@@@@@@               ",
"           @@@@@@@@@@@@@@@@@@@@@@@              ",
"           @@@@@@@@@@@@@@@@@@@@@@@+             ",
"           @@@@@@@@@@@@@@@@@@@@@@@@             ",
"           @@@@@@+      +@@@@@@@@@@@            ",
"           @@@+          +@@@@@@@@@+            ",
"           @+             @@@@@@@@@@            ",
"           @              @@@@@@@@@+            ",
"                          @@@@@@@@@@            ",
"                          @@@@@@@@@+            ",
"                         +@@@@@@@@@             ",
"                         @@@@@@@@@+             ",
"                        @@@@@@@@@@.             ",
"                       +@@@@@@@@@+              ",
"                     +@@@@@@@@@@@               ",
"                    +@@@@@@@@@@+                ",
"                   +@@@@@@@@@@+                 ",
"                  .@@@@@@@@@@@                  ",
"                  @@@@@@@@@@+                   ",
"                 +@@@@@@@@@+                    ",
"                 +@@@@@@@@@                     ",
"                 +@@@@@@@@@                     ",
"                 @@@@@@@@@@                     ",
"                                                ",
"                                                ",
"                                                ",
"                                                ",
"                 @@@@@@@@@@                     ",
"                 @@@@@@@@@@                     ",
"                 @@@@@@@@@@                     ",
"                 @@@@@@@@@@                     ",
"                 @@@@@@@@@@                     ",
"                 @@@@@@@@@@                     ",
"                 @@@@@@@@@@                     ",
"                 @@@@@@@@@@                     ",
"                 @@@@@@@@@@                     ",
"                 @@@@@@@@@@                     ",
"                                                ",
"                                                ",
"                                                "};
