/* XPM */
static const char *warning_xpm[] = {
"48 40 326 2",
"  	c None",
". 	c #E93C3C",
"+ 	c #E80E10",
"@ 	c #EB2124",
"# 	c #E80205",
"$ 	c #EB0401",
"% 	c #E80303",
"& 	c #E70202",
"* 	c #E80C0C",
"= 	c #EA0000",
"- 	c #EB0000",
"; 	c #E90302",
"> 	c #E72A2B",
", 	c #E42221",
"' 	c #EA0100",
") 	c #E90001",
"! 	c #EB0001",
"~ 	c #EA0001",
"{ 	c #EC0000",
"] 	c #E90000",
"^ 	c #E80405",
"/ 	c #ED0000",
"( 	c #E60100",
"_ 	c #EC1719",
": 	c #E61314",
"< 	c #EE4D46",
"[ 	c #ED0003",
"} 	c #E80708",
"| 	c #E90101",
"1 	c #E70000",
"2 	c #E70B0A",
"3 	c #EF0104",
"4 	c #F0999B",
"5 	c #EB4240",
"6 	c #E60402",
"7 	c #E4302F",
"8 	c #EA201E",
"9 	c #E50201",
"0 	c #E90A0B",
"a 	c #F8F0F0",
"b 	c #F2D2D2",
"c 	c #E90102",
"d 	c #E60A0A",
"e 	c #EA0101",
"f 	c #E60000",
"g 	c #EDBFBD",
"h 	c #FAFDFD",
"i 	c #FDFFFF",
"j 	c #EB595D",
"k 	c #E60202",
"l 	c #ED1213",
"m 	c #EC1515",
"n 	c #E80000",
"o 	c #E60001",
"p 	c #E7393A",
"q 	c #F6FBFB",
"r 	c #FCFBFC",
"s 	c #FDFEFD",
"t 	c #F7F4F7",
"u 	c #E91615",
"v 	c #E60101",
"w 	c #E9474A",
"x 	c #E90301",
"y 	c #F6D3D2",
"z 	c #FEFEFE",
"A 	c #FDFDFD",
"B 	c #FCF9FA",
"C 	c #ED8E8D",
"D 	c #E61518",
"E 	c #EB0002",
"F 	c #EA0300",
"G 	c #EC706E",
"H 	c #F6FFFF",
"I 	c #F4F4F4",
"J 	c #EAEAEA",
"K 	c #ECECEC",
"L 	c #F2F7F6",
"M 	c #FAFFFF",
"N 	c #EB2A29",
"O 	c #E50604",
"P 	c #EA2627",
"Q 	c #E32223",
"R 	c #E80102",
"S 	c #E70100",
"T 	c #F8E5E8",
"U 	c #E4E3E4",
"V 	c #1B1B1B",
"W 	c #020202",
"X 	c #050505",
"Y 	c #282828",
"Z 	c #F0F0F1",
"` 	c #F5CAC8",
" .	c #E80001",
"..	c #E80506",
"+.	c #EB9490",
"@.	c #FBFFFF",
"#.	c #B5B6B5",
"$.	c #000000",
"%.	c #010101",
"&.	c #B7B7B6",
"*.	c #E84F4F",
"=.	c #EB1110",
"-.	c #E62323",
";.	c #EA2727",
">.	c #F8F9FA",
",.	c #FBFAFB",
"'.	c #B7B7B7",
").	c #B6B6B6",
"!.	c #FEFEFD",
"~.	c #FCFBF9",
"{.	c #E70F0E",
"].	c #E35252",
"^.	c #F1B6B7",
"/.	c #FFFDFE",
"(.	c #FCFCFC",
"_.	c #BEBEBE",
":.	c #BBBBBB",
"<.	c #FDFEFE",
"[.	c #F5F9F7",
"}.	c #ED8184",
"|.	c #E70606",
"1.	c #E90F10",
"2.	c #E70104",
"3.	c #EA0202",
"4.	c #EA4B49",
"5.	c #F9FFFF",
"6.	c #C8C8C8",
"7.	c #C1C1C1",
"8.	c #FEFFFF",
"9.	c #FCFBFA",
"0.	c #EB0102",
"a.	c #E9383A",
"b.	c #ED2E2C",
"c.	c #E50000",
"d.	c #E70203",
"e.	c #F2D6D7",
"f.	c #F9FCFB",
"g.	c #CFCFCF",
"h.	c #030303",
"i.	c #CCCCCC",
"j.	c #FFFFFF",
"k.	c #FBFCFC",
"l.	c #F1C1C1",
"m.	c #EB0100",
"n.	c #E70B0B",
"o.	c #EA0102",
"p.	c #EE6B6B",
"q.	c #FCFFFF",
"r.	c #FFFFFE",
"s.	c #D6D6D6",
"t.	c #D0D0D0",
"u.	c #FAFDFA",
"v.	c #F9FDFF",
"w.	c #EB4042",
"x.	c #E81210",
"y.	c #E91E1D",
"z.	c #E80200",
"A.	c #E90103",
"B.	c #EA1415",
"C.	c #F4FFFE",
"D.	c #FDFCFD",
"E.	c #E3E3E3",
"F.	c #D5D5D5",
"G.	c #FEFCFE",
"H.	c #F9FDFA",
"I.	c #F6F6F4",
"J.	c #E70A0A",
"K.	c #E70002",
"L.	c #ED5654",
"M.	c #E20605",
"N.	c #EA8C8E",
"O.	c #FAFBFB",
"P.	c #E0E0E0",
"Q.	c #FFFEFE",
"R.	c #F2F8F7",
"S.	c #EC7170",
"T.	c #E70304",
"U.	c #E71212",
"V.	c #E92F31",
"W.	c #F7FFFF",
"X.	c #FFFEFF",
"Y.	c #F1F1F1",
"Z.	c #E8E8E8",
"`.	c #E61B1A",
" +	c #EA2223",
".+	c #E92A29",
"++	c #F6C7C8",
"@+	c #FBFCFA",
"#+	c #FEFDFE",
"$+	c #FAFAFA",
"%+	c #EEEEEE",
"&+	c #FCFEFD",
"*+	c #F3BBBC",
"=+	c #E80100",
"-+	c #EA1111",
";+	c #E80202",
">+	c #E44140",
",+	c #FDFBFD",
"'+	c #0E0E0E",
")+	c #F5F5F5",
"!+	c #FBFDFE",
"~+	c #FAFCFC",
"{+	c #EA2E32",
"]+	c #E81916",
"^+	c #E92D31",
"/+	c #E80101",
"(+	c #E90B0B",
"_+	c #F9F0F1",
":+	c #FEFDFD",
"<+	c #2D2D2D",
"[+	c #F6ECE9",
"}+	c #EA0708",
"|+	c #EA0203",
"1+	c #E73739",
"2+	c #E40000",
"3+	c #EE6E6E",
"4+	c #F7FAFC",
"5+	c #7B7B7B",
"6+	c #383838",
"7+	c #FDFAFB",
"8+	c #ED6567",
"9+	c #E92B2C",
"0+	c #E40402",
"a+	c #EC0F0E",
"b+	c #F3F3F3",
"c+	c #646464",
"d+	c #626262",
"e+	c #F8FCF9",
"f+	c #FAFDFF",
"g+	c #EB0E0D",
"h+	c #EB3836",
"i+	c #E80201",
"j+	c #F2B1B2",
"k+	c #F9F9F9",
"l+	c #F2B0AF",
"m+	c #E70102",
"n+	c #E30E0E",
"o+	c #E31E20",
"p+	c #F7FDFC",
"q+	c #FAFCFD",
"r+	c #494949",
"s+	c #1E1E1E",
"t+	c #A4A4A4",
"u+	c #F5FAFC",
"v+	c #EA2021",
"w+	c #E81110",
"x+	c #EB3F3C",
"y+	c #F3E7E3",
"z+	c #FEFEFF",
"A+	c #121212",
"B+	c #BFBFBF",
"C+	c #FDFFFE",
"D+	c #FBE9EA",
"E+	c #E50404",
"F+	c #EA4D4C",
"G+	c #E95353",
"H+	c #FBF8FA",
"I+	c #E6E6E6",
"J+	c #949494",
"K+	c #FBFBFA",
"L+	c #EA5D5D",
"M+	c #E90100",
"N+	c #E62424",
"O+	c #F7F6F4",
"P+	c #F9FBFB",
"Q+	c #040404",
"R+	c #CBCBCB",
"S+	c #FBFCFD",
"T+	c #E90403",
"U+	c #EB0004",
"V+	c #E52C29",
"W+	c #EC4747",
"X+	c #EE9897",
"Y+	c #FEFFFE",
"Z+	c #909090",
"`+	c #6C6B6B",
" @	c #CECECE",
".@	c #F1A6A5",
"+@	c #EE0202",
"@@	c #E20B0C",
"#@	c #E81719",
"$@	c #FBFCFB",
"%@	c #E82728",
"&@	c #E30202",
"*@	c #EA1011",
"=@	c #E2423F",
"-@	c #E70101",
";@	c #ED0002",
">@	c #EB3F3D",
",@	c #ED5A5A",
"'@	c #ED595A",
")@	c #ED585A",
"!@	c #EE5859",
"~@	c #EF5759",
"{@	c #EE5659",
"]@	c #ED5357",
"^@	c #ED5355",
"/@	c #EE5354",
"(@	c #EF5153",
"_@	c #ED5052",
":@	c #EC4F51",
"<@	c #EF4C4D",
"[@	c #EF4B4B",
"}@	c #EB494B",
"|@	c #EC4949",
"1@	c #EE4848",
"2@	c #EE4647",
"3@	c #F24445",
"4@	c #F24446",
"5@	c #F14446",
"6@	c #EF4443",
"7@	c #ED4442",
"8@	c #EE4243",
"9@	c #EE3130",
"0@	c #F14146",
"a@	c #E90204",
"b@	c #E90404",
"c@	c #EB2E2C",
"d@	c #EA2B2B",
"e@	c #E90202",
"f@	c #E90805",
"g@	c #EF676A",
"h@	c #E80103",
"i@	c #E90002",
"j@	c #EB0101",
"k@	c #EF8989",
"                                            . + @                                               ",
"                                            # $ % &                                             ",
"                                          * = - = ; >                                           ",
"                                        , ' ) ! ~ { ]                                           ",
"                                        ^ / ~ ! ! ~ ( _                                         ",
"                                      : ] ~ - - - ! = = <                                       ",
"                                      [ ! ] ) } | ] ! = 1                                       ",
"                                    2 = ! ] 3 4 5 = - ] 6 7                                     ",
"                                  8 9 = ~ = 0 a b 1 c = = -                                     ",
"                                  d e = ~ f g h i j ] ~ ! k l                                   ",
"                                m n ! = o p q r s t u = ! ) v w                                 ",
"                                x ~ ! ~ 1 y z z A B C f ] ! - &                                 ",
"                              D E = ~ F G H I J K L M N ) - - O P                               ",
"                            Q R ] ! S n T U V W X Y Z ` - ~ - -  .                              ",
"                            ..E ! ! ] +.@.#.$.$.$.%.&.i *.- = ! ] =.                            ",
"                          -.] - ~ ! ;.>.,.'.%.$.$.W ).!.~.{.= - n c ].                          ",
"                          v - ! = n ^./.(._.%.$.$.%.:.<.[.}.- = = = |.                          ",
"                        1.2.= ) 3.4.5.<.z 6.%.$.$.%.7.8.9.@., ] ~ = 0.a.                        ",
"                      b.c.! ~ ] d.e.f.z A g.$.$.$.h.i.z j.k.l.~ = = m.S                         ",
"                      n.o.! - ] p.q.r.z A s.%.$.$.%.t.z j.u.v.w.1 = ~ ! x.                      ",
"                    y.! z.= A.B.C.D.j.j.z E.$.$.$.$.F.j.j.G.H.I.J.= ! = K.L.                    ",
"                    M.! ! ] ] N.O.(.j.j.j.K %.$.$.$.P.z j.j.Q.R.S.= ! - - T.                    ",
"                  U.~ = ! = V.W.s X.z j.j.Y.%.$.$.W Z.z j.X.8.<.i `.) = = |  +                  ",
"                .+1 ! ! ~ = ++@+#+j.j.j.j.$+W $.$.h.%+j.j.j.j.j.&+*+=+~ = 0.f                   ",
"                -+;+! - ~ >+@.,+#+j.j.j.j.j.'+$.$.%.)+j.j.j.j.j.!+~+{+z.= = = ]+                ",
"              ^+] ~ ] /+(+_+:+<.8.X.j.j.j.j.<+$.$.h.(.z j.j.j.j.Q.s [+}+= ! = |+1+              ",
"              2+= ! = n 3+4+z X.j.j.j.j.j.j.5+$.$.6+j.j.j.j.j.j.j.Q.7+8+n ! ~ /+k               ",
"            9+0+= ! = a+H z 8.j.j.j.j.j.j.A b+c+d+I (.j.j.j.j.j.j.z e+f+g+n = = E h+            ",
"          a.= ) - ! i+j+O.j.j.j.j.j.j.j.j.A k+j.j.z (.z j.j.j.j.j.Q.G.h l+m+= ~ =+]             ",
"          n+{ ! = /+o+p+q+j.j.j.j.j.j.j.j.z J r+s+t+(.j.j.j.j.j.j.j.j.X.u+v+= = ! = w+          ",
"        x+n ] ! = ~ y+<.z+j.j.j.j.j.j.j.j.k+A+$.$.$.B+z j.j.j.j.j.j.j.X.C+D+E+= ! = R F+        ",
"        1 ] = = 1 G+H+!.X.j.j.j.j.j.j.j.j.I+$.$.$.%.J+j.j.j.j.j.j.j.j.j.z K+L+n M+= 0.%         ",
"      N+m+= ~ = ] O+P+s j.j.j.j.j.j.j.j.j.j.Y $.$.Q+R+j.j.j.j.j.j.j.j.j.z+S+v.T+U+= ~ ] V+      ",
"    W+n ~ - = ~ X+M z z Y+j.j.j.j.j.j.j.j.z b+Z+`+ @A j.j.j.j.j.j.j.j.j.r.z 8..@e = - ) +@      ",
"    @@/ ! = ~ #@$@q.j.j.j.j.j.j.j.8.j.8.j.i q.j.j.i q.j.j.8.8.i i q.q.q.i i 8.5.%@= = - &@*@    ",
"  =@-@;@! = ( >@,@'@'@'@'@'@)@)@!@~@{@]@^@/@(@_@:@<@<@[@}@|@1@2@2@3@4@4@5@6@7@8@9@f = ! = 2+0@  ",
"  a@) = ! = ! ~ = = = = = = = = = = = = = = = = = = = = = = = = = = = = = = = = = = = ! = = b@  ",
"c@] = ! ! ! ! ! ! ! ! ! ! ! ! ! ! ! ! ! ! ! ! ! ! ! ! ! ! ! ! ! ! ! ! ! ! ! ~ ! ! ! ! ! ! ~ = d@",
"b@e@= - - ~ ! - - - ! ! ! - - ! ! ! ! ! ! ! ! ! ! ! ! ! ! ! ! ! ! - ! - ! ! - ! ! ! - - - ~ ] f@",
"g@h@i@i@ .1 ] ~  . . .n n  . .n  .) ~ ) n n n ] ) ) ~ ~ ~ ) ) ) ] | n  .n ~ ~ = ~ = ) e ) j@-@k@"};
